<svg xmlns="http://www.w3.org/2000/svg" viewBox="0 0 100 100">
  <defs>
    <linearGradient id="g" x1="0%" y1="0%" x2="100%" y2="100%">
      <stop offset="0%" stop-color="#10b981"/>
      <stop offset="100%" stop-color="#3b82f6"/>
    </linearGradient>
  </defs>
  <rect width="100" height="100" rx="22" fill="url(#g)"/>
  <path d="M50 25c-12 0-22 10-22 22 0 8 4 15 10 19-2-5-3-10-3-14 0-8 6-15 15-15 2 0 4 0 6 1-2-4-3-8-3-12 0-1 0-1 0-1zm0 50c12 0 22-10 22-22 0-8-4-15-10-19 2 5 3 10 3 14 0 8-6 15-15 15-2 0-4 0-6-1 2 4 3 8 3 12 0 1 0 1 0 1z" fill="white"/>
</svg>
